<?xml version="1.0" encoding="UTF-8" standalone="no"?>
<!-- Created with Inkscape (http://www.inkscape.org/) -->

<svg
   width="100"
   height="100"
   viewBox="0 0 26.458332 26.458332"
   version="1.1"
   id="svg5"
   inkscape:version="1.1 (c68e22c387, 2021-05-23)"
   sodipodi:docname="facebook.svg"
   xmlns:inkscape="http://www.inkscape.org/namespaces/inkscape"
   xmlns:sodipodi="http://sodipodi.sourceforge.net/DTD/sodipodi-0.dtd"
   xmlns="http://www.w3.org/2000/svg"
   xmlns:svg="http://www.w3.org/2000/svg">
  <sodipodi:namedview
     id="namedview7"
     pagecolor="#ffffff"
     bordercolor="#666666"
     borderopacity="1.0"
     inkscape:pageshadow="2"
     inkscape:pageopacity="0.0"
     inkscape:pagecheckerboard="0"
     inkscape:document-units="px"
     showgrid="false"
     width="300mm"
     units="px"
     inkscape:zoom="3.0716611"
     inkscape:cx="4.8833513"
     inkscape:cy="86.109761"
     inkscape:window-width="1920"
     inkscape:window-height="1051"
     inkscape:window-x="-9"
     inkscape:window-y="-9"
     inkscape:window-maximized="1"
     inkscape:current-layer="layer1" />
  <defs
     id="defs2" />
  <g
     inkscape:label="Capa 1"
     inkscape:groupmode="layer"
     id="layer1">
    <g
       id="g4275"
       transform="translate(24.376739,9.3889207)">
      <path
         style="fill:#000000;stroke-width:0.0995162"
         d="m -14.261584,16.120961 c -6.08592,-1.586606 -10.169994,-7.3947011 -9.510019,-13.5245107 0.331316,-3.07724513 1.455121,-5.4677561 3.588809,-7.6339657 1.935064,-1.9645572 3.930025,-3.0689006 6.568065,-3.6358605 1.182707,-0.2541845 3.8036682,-0.2579775 4.9527362,-0.00717 5.2238595,1.1402232 8.94119244,4.8863093 10.0397083,10.1173682 0.239221,1.1391502 0.2406891,3.49652 0.00294,4.6953904 -0.6318118,3.1857569 -2.3059583,5.8885783 -4.8337616,7.8038563 -1.3828044,1.04773 -3.615944,2.050404 -5.2604376,2.361927 l -0.3234289,0.06127 V 11.935949 7.5126301 L -7.5701134,7.4850908 -6.10325,7.4575515 -5.8360715,5.7657777 C -5.6891234,4.8353011 -5.565522,3.9956338 -5.5614023,3.8998503 -5.5545851,3.7403385 -5.7003331,3.7256967 -7.295443,3.7256967 H -9.0369742 V 2.2891911 c 0,-0.7900789 0.047627,-1.56257287 0.1058436,-1.71665322 0.300469,-0.79525644 1.0639806,-1.12603512 2.5991491,-1.12603512 h 0.9770983 V -2.1351102 c 0,-1.2644746 -0.027963,-1.5923395 -0.1394362,-1.6351178 -0.076694,-0.029432 -0.7624103,-0.1080886 -1.5238239,-0.1747953 -1.6705261,-0.1463593 -2.643889,-0.036754 -3.5870617,0.4039242 -1.208666,0.5647242 -2.125371,1.7351279 -2.402296,3.06713445 -0.0603,0.2900468 -0.10964,1.35362536 -0.10964,2.36350875 v 1.8361502 h -1.642016 -1.642016 v 1.8908068 1.8908057 h 1.642016 1.642016 v 4.4284682 c 0,3.479039 -0.02667,4.427418 -0.124396,4.423574 -0.06842,-0.0027 -0.527435,-0.10997 -1.02004,-0.238388 z"
         id="path4277" />
    </g>
  </g>
</svg>
