<?xml version="1.0" encoding="UTF-8" standalone="no"?>
<!-- Created with Inkscape (http://www.inkscape.org/) -->

<svg
   width="100"
   height="100"
   viewBox="0 0 26.458332 26.458332"
   version="1.1"
   id="svg5"
   inkscape:version="1.1 (c68e22c387, 2021-05-23)"
   sodipodi:docname="instagram.svg"
   xmlns:inkscape="http://www.inkscape.org/namespaces/inkscape"
   xmlns:sodipodi="http://sodipodi.sourceforge.net/DTD/sodipodi-0.dtd"
   xmlns="http://www.w3.org/2000/svg"
   xmlns:svg="http://www.w3.org/2000/svg">
  <sodipodi:namedview
     id="namedview7"
     pagecolor="#ffffff"
     bordercolor="#666666"
     borderopacity="1.0"
     inkscape:pageshadow="2"
     inkscape:pageopacity="0.0"
     inkscape:pagecheckerboard="0"
     inkscape:document-units="px"
     showgrid="false"
     width="300mm"
     units="px"
     inkscape:zoom="3.0716611"
     inkscape:cx="4.8833513"
     inkscape:cy="86.109761"
     inkscape:window-width="1920"
     inkscape:window-height="1051"
     inkscape:window-x="-9"
     inkscape:window-y="-9"
     inkscape:window-maximized="1"
     inkscape:current-layer="g5662" />
  <defs
     id="defs2" />
  <g
     inkscape:label="Capa 1"
     inkscape:groupmode="layer"
     id="layer1">
    <g
       id="g5662"
       transform="matrix(1.1941151,0,0,1.1941151,48.888922,-13.204742)">
      <g
         id="g6077"
         transform="translate(29.935814,5.5543559)">
        <path
           style="fill:#000000;stroke-width:0.0844777"
           d="m -61.038105,27.26558 c -3.618343,-0.447968 -6.803534,-2.699899 -8.397388,-5.936958 -0.780653,-1.585474 -1.095162,-2.960405 -1.095162,-4.787682 0,-2.902504 0.9974,-5.399382 2.979331,-7.4584238 1.553879,-1.6143325 3.400487,-2.6430089 5.583964,-3.1106161 1.258292,-0.2694715 3.22882,-0.2671457 4.433297,0.00524 2.19981,0.4974613 3.812155,1.3825919 5.373596,2.9499479 2.639593,2.649594 3.691124,6.168747 2.942017,9.846037 -0.858302,4.213327 -4.274594,7.553827 -8.561664,8.37172 -0.85489,0.163099 -2.441069,0.221883 -3.257991,0.120744 z m 5.003411,-4.564244 c 1.387696,-0.467481 2.363194,-1.614444 2.596653,-3.053068 0.112616,-0.693963 0.111508,-5.524792 -0.0014,-6.233003 -0.255182,-1.600198 -1.531868,-2.917311 -3.11172,-3.210255 -0.591739,-0.109721 -5.847745,-0.109721 -6.439484,0 -1.168108,0.216596 -2.286808,1.081051 -2.791324,2.156942 -0.366507,0.781581 -0.429477,1.535563 -0.389304,4.661394 0.03292,2.561037 0.04909,2.806619 0.21444,3.255625 0.358976,0.974804 1.013782,1.734107 1.877566,2.177196 0.777456,0.398806 0.882797,0.408995 4.289909,0.414949 3.058552,0.0054 3.262179,-0.0038 3.754698,-0.16978 z m -6.946398,-1.168783 c -0.787177,-0.247576 -1.498111,-0.908957 -1.731111,-1.610453 -0.11619,-0.349798 -0.131645,-0.849792 -0.110162,-3.562468 0.02447,-3.089569 0.02899,-3.163023 0.215645,-3.512348 0.271168,-0.507478 0.733816,-0.939602 1.280406,-1.195929 l 0.471933,-0.221316 h 3.083435 3.083437 l 0.464628,0.218811 c 0.660045,0.310841 0.966642,0.60036 1.262262,1.191949 l 0.258336,0.516974 v 3.097133 c 0,3.495934 -0.01359,3.59127 -0.608387,4.266993 -0.188246,0.213858 -0.53703,0.491576 -0.775074,0.617149 l -0.43281,0.228315 -3.125675,0.01581 c -1.71912,0.0087 -3.220712,-0.01408 -3.336869,-0.05061 z m 4.67366,-2.190233 c 0.64462,-0.317346 1.158639,-0.848789 1.483914,-1.534215 0.189593,-0.399514 0.220493,-0.577093 0.220493,-1.267165 0,-0.707341 -0.02907,-0.865488 -0.245065,-1.333229 -0.590292,-1.278288 -2.040231,-2.048647 -3.387215,-1.799644 -0.707802,0.130845 -1.198478,0.39387 -1.739435,0.93242 -0.633926,0.631104 -0.866074,1.21798 -0.870424,2.200453 -0.0025,0.569565 0.03631,0.805411 0.187826,1.140449 0.28978,0.640819 0.588597,1.029173 1.055756,1.372098 0.64801,0.475684 1.148392,0.622479 2.010313,0.589756 0.617786,-0.02345 0.813308,-0.06928 1.283837,-0.300923 z m -2.043271,-0.96893 c -0.760545,-0.288948 -1.304472,-1.073367 -1.296288,-1.86943 0.0081,-0.783574 0.360146,-1.354725 1.050912,-1.704764 0.367652,-0.186303 0.516434,-0.213885 1.004854,-0.186287 0.469995,0.02656 0.638431,0.07817 0.934725,0.286411 0.940804,0.661222 1.161233,1.83311 0.519095,2.759716 -0.452806,0.653401 -1.49141,0.988615 -2.213298,0.714354 z m 4.250458,-4.486345 c 0.53231,-0.222414 0.639471,-0.820884 0.221778,-1.238577 -0.702694,-0.702696 -1.762856,0.297892 -1.113914,1.051321 0.125435,0.14563 0.38154,0.28863 0.539905,0.301466 0.03634,0.003 0.194842,-0.04845 0.352231,-0.114213 z"
           id="path6079" />
      </g>
    </g>
  </g>
</svg>
