<?xml version="1.0" encoding="UTF-8" standalone="no"?>
<!-- Created with Inkscape (http://www.inkscape.org/) -->

<svg
   width="100"
   height="100"
   viewBox="0 0 26.458332 26.458332"
   version="1.1"
   id="svg5"
   inkscape:version="1.1 (c68e22c387, 2021-05-23)"
   sodipodi:docname="twiter.svg"
   xmlns:inkscape="http://www.inkscape.org/namespaces/inkscape"
   xmlns:sodipodi="http://sodipodi.sourceforge.net/DTD/sodipodi-0.dtd"
   xmlns="http://www.w3.org/2000/svg"
   xmlns:svg="http://www.w3.org/2000/svg">
  <sodipodi:namedview
     id="namedview7"
     pagecolor="#ffffff"
     bordercolor="#666666"
     borderopacity="1.0"
     inkscape:pageshadow="2"
     inkscape:pageopacity="0.0"
     inkscape:pagecheckerboard="0"
     inkscape:document-units="px"
     showgrid="false"
     width="300mm"
     units="px"
     inkscape:zoom="3.0716611"
     inkscape:cx="4.8833513"
     inkscape:cy="86.109761"
     inkscape:window-width="1920"
     inkscape:window-height="1051"
     inkscape:window-x="-9"
     inkscape:window-y="-9"
     inkscape:window-maximized="1"
     inkscape:current-layer="layer1" />
  <defs
     id="defs2" />
  <g
     inkscape:label="Capa 1"
     inkscape:groupmode="layer"
     id="layer1">
    <g
       id="g5426"
       transform="matrix(1.1901524,0,0,1.1901524,32.530368,-0.5669783)">
      <path
         style="fill:#d6d6d6;stroke-width:0.0846667"
         d="m -8.7430693,19.475987 c 0,-0.01457 0.123825,-0.138396 0.2751666,-0.275167 l 0.2751667,-0.248673 -0.2486736,0.275166 c -0.2317987,0.256495 -0.3016597,0.314084 -0.3016597,0.248674 z M -15.601069,7.5325132 c 0,-0.017581 0.06668,-0.084256 0.148166,-0.1481663 0.134287,-0.1053144 0.137281,-0.1023197 0.03197,0.031966 -0.110606,0.1410335 -0.180133,0.185884 -0.180133,0.1162 z"
         id="path5440" />
      <path
         style="fill:#b9b9b9;stroke-width:0.0846667"
         d="m -16.721915,22.405932 c 0.105317,-0.02025 0.257717,-0.01948 0.338666,0.0017 0.08095,0.02119 -0.0052,0.03776 -0.191487,0.03682 -0.186267,-9.4e-4 -0.252497,-0.01828 -0.147179,-0.03853 z m 0.762,0 c 0.105317,-0.02025 0.257717,-0.01948 0.338666,0.0017 0.08095,0.02119 -0.0052,0.03776 -0.191487,0.03682 -0.186267,-9.4e-4 -0.252497,-0.01828 -0.147179,-0.03853 z M -5.3321872,11.586147 c 6.774e-4,-0.232834 0.017079,-0.318035 0.03654,-0.189336 0.019461,0.128698 0.018941,0.319198 -0.00115,0.423333 -0.020097,0.104135 -0.036019,-0.0012 -0.035384,-0.233997 z M -11.348093,9.6811466 c 0,-0.1629834 0.01742,-0.2296584 0.03872,-0.1481667 0.0213,0.081492 0.0213,0.2148417 0,0.2963333 -0.0213,0.081492 -0.03872,0.014817 -0.03872,-0.1481666 z"
         id="path5438" />
      <path
         style="fill:#989898;stroke-width:0.0846667"
         d="m -13.569069,14.813846 c 0,-0.01758 0.06668,-0.08426 0.148166,-0.148166 0.134287,-0.105315 0.137281,-0.10232 0.03197,0.03197 -0.110606,0.141033 -0.180133,0.185884 -0.180133,0.116199 z M -24.321736,4.3151802 c 0,-0.017582 0.06668,-0.084257 0.148167,-0.1481666 0.134286,-0.1053144 0.13728,-0.1023198 0.03197,0.031966 -0.110606,0.1410333 -0.180133,0.1858839 -0.180133,0.1162003 z"
         id="path5436" />
      <path
         style="fill:#797979;stroke-width:0.0846667"
         d="m -18.541625,16.395807 c 0.08238,-0.02147 0.196678,-0.02006 0.254,0.0031 0.05732,0.02319 -0.01008,0.04076 -0.149778,0.03903 -0.1397,-0.0017 -0.1866,-0.0207 -0.104222,-0.04217 z m 0.675722,3.38e-4 c 0.08149,-0.0213 0.214842,-0.0213 0.296334,0 0.08149,0.0213 0.01482,0.03872 -0.148167,0.03872 -0.162983,0 -0.229658,-0.01742 -0.148167,-0.03872 z m 6.504851,-6.341025 c 0.0041,-0.098632 0.02413,-0.1186941 0.05115,-0.05115 0.02446,0.06112 0.02145,0.134143 -0.0067,0.162278 -0.02813,0.02813 -0.04814,-0.02187 -0.04447,-0.111125 z m -2.482197,-3.3971882 c 0.105318,-0.020252 0.257718,-0.019483 0.338667,0.00171 0.08095,0.021191 -0.0052,0.037761 -0.191487,0.036821 -0.186267,-9.398e-4 -0.252498,-0.018278 -0.14718,-0.03853 z m -3.297695,-5.92462222 c 0.06112,-0.0244577 0.134143,-0.0214498 0.162278,0.006684 0.02813,0.0281341 -0.02187,0.0481449 -0.111125,0.0444686 -0.09863,-0.004062 -0.118694,-0.024125 -0.05115,-0.0511528 z m 1.778,0 c 0.06112,-0.0244577 0.134143,-0.0214498 0.162278,0.006684 0.02813,0.0281341 -0.02187,0.0481449 -0.111125,0.0444686 -0.09863,-0.004062 -0.118694,-0.024125 -0.05115,-0.0511528 z"
         id="path5434" />
      <path
         style="fill:#5a5a5a;stroke-width:0.0846667"
         d="m -8.5782936,3.8603132 -0.2917757,-0.3175 0.3175,0.2917755 c 0.174625,0.1604765 0.3175,0.3033515 0.3175,0.3175 0,0.064653 -0.071647,0.00375 -0.3432243,-0.2917755 z M -23.983069,3.9765136 c 0,-0.017582 0.06668,-0.084257 0.148166,-0.1481667 0.134286,-0.1053144 0.137281,-0.1023197 0.03197,0.031966 -0.110606,0.1410334 -0.180133,0.1858839 -0.180133,0.1162004 z"
         id="path5432" />
      <path
         style="fill:#373737;stroke-width:0.0846667"
         d="m -17.310278,22.32331 c 0.06112,-0.02446 0.134144,-0.02145 0.162278,0.0067 0.02813,0.02813 -0.02187,0.04815 -0.111125,0.04447 -0.09863,-0.0041 -0.118694,-0.02413 -0.05115,-0.05115 z m 8.3132087,-2.683464 c 0,-0.01758 0.066675,-0.08426 0.1481666,-0.148166 0.1342864,-0.105315 0.1372811,-0.10232 0.031967,0.03197 -0.110606,0.141033 -0.1801334,0.185884 -0.1801334,0.116199 z M -23.898403,19.206147 c -0.205657,-0.20955 -0.354873,-0.381 -0.33159,-0.381 0.02328,0 0.210599,0.17145 0.416257,0.381 0.205658,0.20955 0.354873,0.381 0.33159,0.381 -0.02328,0 -0.210599,-0.17145 -0.416257,-0.381 z m 15.578667,-0.243634 c 0,-0.01758 0.066675,-0.08426 0.1481667,-0.148167 0.1342864,-0.105314 0.137281,-0.102319 0.031967,0.03197 -0.110606,0.141034 -0.1801334,0.185884 -0.1801334,0.1162 z m -9.075208,-2.56587 c 0.06112,-0.02446 0.134143,-0.02145 0.162278,0.0067 0.02813,0.02813 -0.02187,0.04814 -0.111125,0.04447 -0.09863,-0.0041 -0.118694,-0.02413 -0.05115,-0.05115 z m -4.594843,-1.036979 c -0.0563,-0.0911 0.109413,-0.217378 0.185462,-0.141329 0.02795,0.02795 0.0041,0.05081 -0.05296,0.05081 -0.05708,0 -0.08023,0.0381 -0.05145,0.08467 0.02878,0.04657 0.03328,0.08467 0.01,0.08467 -0.02328,0 -0.06425,-0.03547 -0.09105,-0.07882 z m -5.034598,-3.018573 c 0.0041,-0.09863 0.02412,-0.118694 0.05115,-0.05115 0.02446,0.06112 0.02145,0.134144 -0.0067,0.162278 -0.02813,0.02813 -0.04814,-0.02187 -0.04447,-0.111125 z m 6.167574,-0.437444 -0.205258,-0.232834 0.232833,0.205258 c 0.217618,0.191846 0.27166,0.260409 0.205259,0.260409 -0.01517,0 -0.119942,-0.104775 -0.232834,-0.232833 z m -6.167574,-1.171222 c 0.0041,-0.09863 0.02412,-0.118695 0.05115,-0.05115 0.02446,0.06112 0.02145,0.134143 -0.0067,0.162278 -0.02813,0.02813 -0.04814,-0.02187 -0.04447,-0.111125 z m 21.5900001,-0.08467 c 0.00406,-0.09863 0.024125,-0.118694 0.051152,-0.05115 0.024458,0.06112 0.02145,0.134143 -0.00668,0.162278 -0.028134,0.02813 -0.048145,-0.02187 -0.044469,-0.111125 z m -16.1713331,-0.42333 c 0.0041,-0.09863 0.02412,-0.118695 0.05115,-0.05115 0.02446,0.06112 0.02145,0.134143 -0.0067,0.162278 -0.02813,0.02813 -0.04814,-0.02187 -0.04447,-0.111125 z m 0.719781,-0.101439 -0.162535,-0.2301728 0.226035,0.2052578 c 0.237524,0.215693 0.266799,0.262117 0.162534,0.257749 -0.03493,-0.0015 -0.13664,-0.106239 -0.226034,-0.232834 z m 4.628886,-0.9921728 c 9.39e-4,-0.1862666 0.01828,-0.2524971 0.03853,-0.1471794 0.02025,0.1053177 0.01948,0.2577177 -0.0017,0.3386666 -0.02119,0.080949 -0.03776,-0.00522 -0.03682,-0.1914872 z m 5.481982,-0.4233333 c 0.109368,-0.1164167 0.2179,-0.2116667 0.241184,-0.2116667 0.02328,0 -0.04715,0.09525 -0.156518,0.2116667 -0.109368,0.1164167 -0.2179,0.2116667 -0.241184,0.2116667 -0.02328,0 0.04715,-0.09525 0.156518,-0.2116667 z M -21.605718,8.2770913 c 0.0041,-0.098632 0.02412,-0.1186942 0.05115,-0.051153 0.02446,0.061118 0.02145,0.1341434 -0.0067,0.1622781 -0.02813,0.028134 -0.04814,-0.021873 -0.04447,-0.111125 z m 0.833574,-0.7761114 -0.205259,-0.2328333 0.232834,0.2052582 c 0.128058,0.1128929 0.232833,0.2176679 0.232833,0.2328333 0,0.066402 -0.06856,0.01236 -0.260408,-0.2052582 z m 3.923853,-6.76850657 c 0.08238,-0.0214666 0.196678,-0.0200549 0.254,0.003137 0.05732,0.0231921 -0.01008,0.0407558 -0.149778,0.0390303 -0.1397,-0.001726 -0.186601,-0.0207008 -0.104222,-0.0421673 z m 1.100666,0 c 0.08238,-0.0214666 0.196678,-0.0200549 0.254,0.003137 0.05732,0.0231921 -0.01008,0.0407558 -0.149778,0.0390303 -0.1397,-0.001726 -0.1866,-0.0207008 -0.104222,-0.0421673 z"
         id="path5430" />
      <path
         style="fill:#000000;stroke-width:0.0846667"
         d="m -17.379069,22.32783 c -1.744629,-0.218894 -3.435211,-0.849712 -4.910667,-1.832347 -0.900556,-0.59976 -2.473159,-2.223156 -3.035368,-3.133409 -2.020961,-3.272059 -2.228014,-7.186237 -0.559528,-10.5774615 1.484108,-3.0164769 4.247839,-5.1380297 7.596779,-5.83159952 1.205247,-0.24960809 2.982987,-0.24960809 4.188234,0 4.39566,0.91034682 7.6724497,4.21819472 8.5470276,8.62803892 0.2022864,1.0199791 0.2010376,3.0255901 -0.00249,3.9947611 -0.9329048,4.442438 -4.1094245,7.648109 -8.5219886,8.600196 -0.616866,0.1331 -2.691096,0.22847 -3.301999,0.151821 z m 0.804333,-6.033635 c 0.959772,-0.199084 1.665696,-0.485909 2.404153,-0.976834 1.688956,-1.122816 2.712126,-3.017337 2.861032,-5.297548 l 0.05253,-0.8043331 0.437395,-0.4233333 c 0.474341,-0.4590915 0.773823,-0.8652934 0.695619,-0.9434983 -0.02707,-0.027067 -0.229191,0.012111 -0.449161,0.087063 -0.21997,0.074951 -0.413027,0.1231942 -0.429016,0.1072066 -0.01599,-0.015988 0.0806,-0.1670711 0.214643,-0.3357398 0.265796,-0.33446 0.485594,-0.7984688 0.41274,-0.8713225 -0.02522,-0.025224 -0.169906,0.018284 -0.321516,0.096685 -0.15161,0.078401 -0.478485,0.2123304 -0.726389,0.2976219 L -11.87344,7.385238 -12.302319,7.096624 c -0.235883,-0.1587377 -0.569774,-0.3277457 -0.741979,-0.3755733 -1.51231,-0.4200237 -3.160145,0.7942466 -3.183728,2.3460512 -0.0094,0.6192037 0.02864,0.6054378 -0.973263,0.3520778 -1.422856,-0.3598104 -2.593087,-0.9898371 -3.43426,-1.8489312 -0.231083,-0.2360059 -0.471152,-0.4291016 -0.533487,-0.4291016 -0.192159,0 -0.380663,0.5973622 -0.377737,1.1970334 0.003,0.6121798 0.193317,1.1537891 0.586705,1.6695477 l 0.223918,0.293571 -0.205291,-0.05812 c -0.11291,-0.03196 -0.314326,-0.08186 -0.447592,-0.110886 -0.237178,-0.05166 -0.241053,-0.04669 -0.183258,0.234872 0.197762,0.963463 0.572122,1.544393 1.250341,1.940276 l 0.445218,0.259878 -0.374651,-0.0228 c -0.471453,-0.02869 -0.51086,0.07356 -0.219769,0.570272 0.312378,0.533033 0.69659,0.79864 1.73742,1.201081 0.206396,0.0798 0.201127,0.08718 -0.211667,0.296249 -0.719156,0.364234 -1.5593,0.587816 -2.313668,0.615723 -0.38775,0.01434 -0.724116,0.0452 -0.74748,0.06856 -0.06804,0.06804 0.64223,0.454233 1.270023,0.690534 1.240343,0.466863 2.827447,0.584036 4.161792,0.307255 z"
         id="path5428" />
    </g>
  </g>
</svg>
