<?xml version="1.0" encoding="UTF-8" standalone="no"?>
<!-- Created with Inkscape (http://www.inkscape.org/) -->

<svg
   width="100"
   height="100"
   viewBox="0 0 26.458332 26.458332"
   version="1.1"
   id="svg5"
   inkscape:version="1.1 (c68e22c387, 2021-05-23)"
   sodipodi:docname="whatapp.svg"
   xmlns:inkscape="http://www.inkscape.org/namespaces/inkscape"
   xmlns:sodipodi="http://sodipodi.sourceforge.net/DTD/sodipodi-0.dtd"
   xmlns="http://www.w3.org/2000/svg"
   xmlns:svg="http://www.w3.org/2000/svg">
  <sodipodi:namedview
     id="namedview7"
     pagecolor="#ffffff"
     bordercolor="#666666"
     borderopacity="1.0"
     inkscape:pageshadow="2"
     inkscape:pageopacity="0.0"
     inkscape:pagecheckerboard="0"
     inkscape:document-units="px"
     showgrid="false"
     width="300mm"
     units="px"
     inkscape:zoom="3.0716611"
     inkscape:cx="4.8833513"
     inkscape:cy="86.109761"
     inkscape:window-width="1920"
     inkscape:window-height="1051"
     inkscape:window-x="-9"
     inkscape:window-y="-9"
     inkscape:window-maximized="1"
     inkscape:current-layer="layer1" />
  <defs
     id="defs2" />
  <g
     inkscape:label="Capa 1"
     inkscape:groupmode="layer"
     id="layer1">
    <g
       id="g4979"
       transform="translate(31.095416,0.60295821)">
      <path
         style="fill:#000000;stroke-width:0.100542"
         d="m -19.286915,25.376936 c -2.268465,-0.283757 -4.379776,-1.132938 -6.20016,-2.493739 -5.410738,-4.044716 -6.737481,-11.647728 -3.023987,-17.3292079 0.804511,-1.2308664 2.441334,-2.8676896 3.672201,-3.6722003 6.454754,-4.2189171 15.1700533,-1.85534417 18.5622321,5.0340441 0.9290954,1.8869589 1.3034102,3.5233391 1.3034102,5.6980791 0,2.216797 -0.3776029,3.833326 -1.3519313,5.787651 -1.7584051,3.527041 -5.157232,6.083388 -9.084399,6.832619 -1.019815,0.194562 -2.907569,0.264064 -3.877366,0.142754 z m -3.418555,-5.965492 c 1.951326,-0.530819 1.962215,-0.532511 2.312453,-0.358891 1.729599,0.857394 4.146951,0.913956 6.060247,0.141798 2.826451,-1.140684 4.757175,-4.227128 4.556647,-7.284229 -0.073375,-1.118659 -0.275318,-1.881263 -0.758778,-2.8654322 -1.721066,-3.5035459 -5.873336,-5.0830949 -9.494395,-3.611727 -2.101624,0.8539665 -3.820792,2.8568822 -4.386763,5.1107952 -0.383001,1.525254 -0.208983,3.415541 0.446172,4.846587 l 0.243686,0.532281 -0.492245,1.826834 c -0.270734,1.004758 -0.519177,1.911691 -0.552095,2.015407 -0.03292,0.103716 -0.02287,0.186622 0.02233,0.18424 0.0452,-0.0024 0.964433,-0.244331 2.042741,-0.537663 z m 4.100923,-1.323191 c -0.31584,-0.07657 -0.881385,-0.293054 -1.256768,-0.481064 l -0.682514,-0.341835 -0.804332,0.221003 c -0.442382,0.121551 -0.92346,0.250844 -1.069061,0.287319 l -0.264729,0.06632 0.285785,-1.065261 0.285784,-1.065263 -0.349108,-0.693234 c -0.468931,-0.931173 -0.648147,-1.673707 -0.648147,-2.685426 0,-4.371002 4.547132,-7.2383032 8.485656,-5.3508289 1.399541,0.670707 2.596589,2.0440375 3.087293,3.5419409 0.342749,1.046269 0.340835,2.540195 -0.0046,3.595055 -0.29931,0.913983 -1.043041,2.051983 -1.745372,2.670636 -0.609493,0.536877 -1.678026,1.087804 -2.529699,1.304296 -0.731096,0.185841 -2.015527,0.184157 -2.790179,-0.0037 z m 4.190775,-2.687501 c 0.474329,-0.26865 0.857576,-0.797824 0.857576,-1.184108 0,-0.310635 -0.371056,-0.675858 -1.02624,-1.010108 -0.595006,-0.30355 -0.966388,-0.225274 -1.333062,0.280971 -0.167776,0.231635 -0.354864,0.423921 -0.415749,0.4273 -0.172071,0.0095 -1.016931,-0.464111 -1.453246,-0.814742 -0.216525,-0.174003 -0.557249,-0.553863 -0.757165,-0.844134 l -0.363485,-0.527762 0.261478,-0.3848 c 0.328339,-0.483194 0.333903,-0.932419 0.0199,-1.6067885 -0.397891,-0.8545328 -0.974734,-1.0752637 -1.548443,-0.5925173 -0.668667,0.5626446 -0.816601,1.5918218 -0.367489,2.5566218 1.223781,2.628976 4.511231,4.6146 6.125925,3.700067 z"
         id="path4981" />
    </g>
  </g>
</svg>
