<?xml version="1.0" encoding="UTF-8" standalone="no"?>
<!-- Created with Inkscape (http://www.inkscape.org/) -->

<svg
   width="100"
   height="100"
   viewBox="0 0 26.458332 26.458332"
   version="1.1"
   id="svg5"
   inkscape:version="1.1 (c68e22c387, 2021-05-23)"
   sodipodi:docname="youtube.svg"
   xmlns:inkscape="http://www.inkscape.org/namespaces/inkscape"
   xmlns:sodipodi="http://sodipodi.sourceforge.net/DTD/sodipodi-0.dtd"
   xmlns="http://www.w3.org/2000/svg"
   xmlns:svg="http://www.w3.org/2000/svg">
  <sodipodi:namedview
     id="namedview7"
     pagecolor="#ffffff"
     bordercolor="#666666"
     borderopacity="1.0"
     inkscape:pageshadow="2"
     inkscape:pageopacity="0.0"
     inkscape:pagecheckerboard="0"
     inkscape:document-units="px"
     showgrid="false"
     width="300mm"
     units="px"
     inkscape:zoom="3.0716611"
     inkscape:cx="4.8833513"
     inkscape:cy="86.109761"
     inkscape:window-width="1920"
     inkscape:window-height="1051"
     inkscape:window-x="-9"
     inkscape:window-y="-9"
     inkscape:window-maximized="1"
     inkscape:current-layer="g5662" />
  <defs
     id="defs2" />
  <g
     inkscape:label="Capa 1"
     inkscape:groupmode="layer"
     id="layer1">
    <g
       id="g5662"
       transform="matrix(1.1941151,0,0,1.1941151,48.888922,-13.204742)">
      <path
         style="fill:#d8d8d8;stroke-width:0.0846667"
         d="m -35.148161,25.461817 c -0.105314,-0.134286 -0.102319,-0.137281 0.03197,-0.03197 0.08149,0.06391 0.148166,0.130585 0.148166,0.148166 0,0.06968 -0.06953,0.02483 -0.180133,-0.1162 z"
         id="path5676" />
      <path
         style="fill:#bcbcbc;stroke-width:0.0846667"
         d="m -31.7238,26.22389 c 1.015975,-0.01352 2.654275,-0.0135 3.640667,3.7e-5 0.986391,0.01353 0.155139,0.02459 -1.847228,0.02457 -2.002367,-1.9e-5 -2.809414,-0.01109 -1.793439,-0.02461 z m 7.71361,-4.127573 c 6.9e-5,-0.9779 0.01239,-1.366354 0.02739,-0.863231 0.01499,0.503122 0.01494,1.303222 -8.5e-5,1.778 -0.01506,0.474777 -0.02733,0.06313 -0.02726,-0.914769 z m -11.853595,0 c -7.5e-5,-0.931333 0.0123,-1.323885 0.02749,-0.872336 0.01519,0.451547 0.01525,1.213547 1.35e-4,1.693333 -0.01512,0.479785 -0.02755,0.110337 -0.02762,-0.820997 z m 16.920817,0.04233 c 0,-0.20955 0.01651,-0.295275 0.03669,-0.1905 0.02018,0.104775 0.02018,0.276225 0,0.381 -0.02018,0.104775 -0.03669,0.01905 -0.03669,-0.1905 z M -29.993861,11.241565 c 0.104775,-0.02018 0.276225,-0.02018 0.381,0 0.104775,0.02018 0.01905,0.03669 -0.1905,0.03669 -0.20955,0 -0.295275,-0.01651 -0.1905,-0.03669 z"
         id="path5674" />
      <path
         style="fill:#979797;stroke-width:0.0846667"
         d="m -24.773739,18.730817 -0.161289,-0.1905 0.1905,0.161289 c 0.179023,0.151572 0.229044,0.219711 0.161289,0.219711 -0.01607,0 -0.101791,-0.08573 -0.1905,-0.1905 z m -10.448289,0.07387 c 0,-0.01758 0.06668,-0.08426 0.148167,-0.148167 0.134286,-0.105314 0.137281,-0.102319 0.03197,0.03197 -0.110606,0.141033 -0.180133,0.185884 -0.180133,0.1162 z"
         id="path5672" />
      <path
         style="fill:#7b7b7b;stroke-width:0.0846667"
         d="m -35.892677,20.311262 c 0.0041,-0.09863 0.02412,-0.118694 0.05115,-0.05115 0.02446,0.06112 0.02145,0.134143 -0.0067,0.162278 -0.02813,0.02813 -0.04814,-0.02187 -0.04447,-0.111125 z m 4.168877,-2.384706 c 1.015975,-0.01352 2.654275,-0.0135 3.640667,3.7e-5 0.986391,0.01354 0.155139,0.02459 -1.847228,0.02457 -2.002367,-2e-5 -2.809414,-0.01109 -1.793439,-0.02461 z"
         id="path5670" />
      <path
         style="fill:#5a5a5a;stroke-width:0.0846667"
         d="m -22.606694,30.234684 c 0,-0.01758 0.06668,-0.08426 0.148166,-0.148167 0.134287,-0.105314 0.137281,-0.102319 0.03197,0.03197 -0.110606,0.141033 -0.180133,0.185884 -0.180133,0.1162 z m -14.697711,-0.2432 -0.161289,-0.1905 0.1905,0.161289 c 0.179023,0.151572 0.229043,0.219711 0.161289,0.219711 -0.01607,0 -0.101791,-0.08573 -0.1905,-0.1905 z m -0.423334,-0.423333 -0.161289,-0.1905 0.1905,0.161289 c 0.179023,0.151572 0.229044,0.219711 0.161289,0.219711 -0.01607,0 -0.101791,-0.08573 -0.1905,-0.1905 z m 15.798378,-0.0108 c 0,-0.01758 0.06668,-0.08426 0.148167,-0.148167 0.134286,-0.105314 0.137281,-0.10232 0.03197,0.03197 -0.110606,0.141033 -0.180133,0.185884 -0.180133,0.1162 z"
         id="path5668" />
      <path
         style="fill:#383838;stroke-width:0.0846667"
         d="m -30.665903,32.918147 c 0.06112,-0.02446 0.134144,-0.02145 0.162278,0.0067 0.02813,0.02813 -0.02187,0.04814 -0.111125,0.04447 -0.09863,-0.0041 -0.118694,-0.02412 -0.05115,-0.05115 z m 1.608667,0 c 0.06112,-0.02446 0.134143,-0.02145 0.162278,0.0067 0.02813,0.02813 -0.02187,0.04814 -0.111125,0.04447 -0.09863,-0.0041 -0.118694,-0.02412 -0.05115,-0.05115 z m 6.873875,-3.117163 c 0.109368,-0.116417 0.217901,-0.211667 0.241184,-0.211667 0.02328,0 -0.04715,0.09525 -0.156517,0.211667 -0.109368,0.116417 -0.217901,0.211667 -0.241184,0.211667 -0.02328,0 0.04715,-0.09525 0.156517,-0.211667 z m -9.193523,-7.662333 c 0,-0.861484 0.01257,-1.213909 0.02794,-0.783167 0.01537,0.430742 0.01537,1.135592 0,1.566333 -0.01537,0.430742 -0.02794,0.07832 -0.02794,-0.783166 z m 12.332874,0.881944 c 0.0041,-0.09863 0.02413,-0.118694 0.05115,-0.05115 0.02446,0.06112 0.02145,0.134144 -0.0067,0.162278 -0.02813,0.02813 -0.04814,-0.02187 -0.04447,-0.111125 z m -21.59,-0.08467 c 0.0041,-0.09863 0.02413,-0.118695 0.05115,-0.05115 0.02446,0.06112 0.02145,0.134143 -0.0067,0.162278 -0.02813,0.02813 -0.04814,-0.02187 -0.04447,-0.111125 z m 0,-1.608667 c 0.0041,-0.09863 0.02413,-0.118694 0.05115,-0.05115 0.02446,0.06112 0.02145,0.134143 -0.0067,0.162278 -0.02813,0.02813 -0.04814,-0.02187 -0.04447,-0.111125 z m 21.59,-0.08467 c 0.0041,-0.09863 0.02413,-0.118694 0.05115,-0.05115 0.02446,0.06112 0.02145,0.134144 -0.0067,0.162278 -0.02813,0.02813 -0.04814,-0.02187 -0.04447,-0.111125 z m -3.143909,-6.787444 -0.291775,-0.3175 0.3175,0.291775 c 0.174625,0.160477 0.3175,0.303352 0.3175,0.3175 0,0.06465 -0.07165,0.0037 -0.343225,-0.291775 z m -15.320109,0.02117 c 0.109368,-0.116416 0.217901,-0.211666 0.241184,-0.211666 0.02328,0 -0.04715,0.09525 -0.156517,0.211666 -0.109368,0.116417 -0.217901,0.211667 -0.241184,0.211667 -0.02328,0 0.04715,-0.09525 0.156517,-0.211667 z m 6.757459,-3.14817 c 0.06112,-0.02446 0.134143,-0.02145 0.162278,0.0067 0.02813,0.02813 -0.02187,0.04814 -0.111125,0.04447 -0.09863,-0.0041 -0.118694,-0.02413 -0.05115,-0.05115 z m 1.778,0 c 0.06112,-0.02446 0.134143,-0.02145 0.162278,0.0067 0.02813,0.02813 -0.02187,0.04814 -0.111125,0.04447 -0.09863,-0.0041 -0.118694,-0.02413 -0.05115,-0.05115 z"
         id="path5666" />
      <path
         style="fill:#000000;stroke-width:0.0846667"
         d="m -31.073239,32.886481 c -4.187894,-0.523855 -7.725698,-3.424526 -9.01086,-7.388069 -0.691143,-2.131544 -0.691598,-4.57797 -0.0012,-6.719523 1.94478,-6.032957 8.808238,-9.1005172 14.63965,-6.543059 2.388561,1.047541 4.497616,3.156596 5.545157,5.545157 1.144694,2.610085 1.206129,5.642916 0.168021,8.294664 -1.177883,3.00879 -3.64851,5.342565 -6.715842,6.343844 -1.364391,0.445382 -3.26411,0.637202 -4.624878,0.466986 z m 5.604377,-6.83729 c 0.507345,-0.249899 1.019476,-0.76203 1.269374,-1.269375 0.189964,-0.385664 0.195794,-0.465558 0.195794,-2.683499 v -2.286 l -0.226257,-0.428706 c -0.270397,-0.512344 -0.793073,-1.004865 -1.329713,-1.253 -0.382188,-0.176718 -0.484654,-0.18096 -4.370697,-0.18096 h -3.979333 l -0.483823,0.237587 c -0.59766,0.293489 -1.104004,0.853751 -1.33884,1.481406 -0.165683,0.442828 -0.175583,0.612967 -0.15099,2.594788 0.02626,2.116464 0.02679,2.121787 0.254469,2.553329 0.279356,0.529501 0.964741,1.161637 1.446098,1.333749 0.302427,0.108134 0.973147,0.125485 4.337086,0.112195 3.972327,-0.01569 3.980033,-0.01607 4.376832,-0.211514 z m -5.710332,-2.281067 c -0.134722,-0.03021 -0.148167,-0.178631 -0.148167,-1.635681 v -1.602459 l 0.232833,0.0041 c 0.250018,0.0044 3.081922,1.515853 3.134254,1.672848 0.01726,0.05179 -0.586831,0.403729 -1.342432,0.782086 -1.548657,0.775468 -1.669342,0.825577 -1.876488,0.779129 z"
         id="path5664" />
    </g>
  </g>
</svg>
